# xmcd
#
# Track frame offsets:
#        150
#        6145
#        21571
#        38943
#        59772
#        81450
#        102814
#        122493
#        143825
#        167295
#        188260
#        208262
#        226110
#        232972
#        246882
#        265758
#        307395
#
# Disc length: 4342 seconds
#
# Revision: 0
# Processed by: cddbd v1.5.1PL0 Copyright (c) Steve Scherf et al.
# Submitted via: ExactAudioCopy v0.95a5
#
DISCID=e410f411
DTITLE=Jill Scott - Beautifully Human
DYEAR=2004
DGENRE=Soul
TTITLE0=Warm Up
TTITLE1=I'm Not Afraid
TTITLE2=Golden
TTITLE3=The Fact Is (I Need You)
TTITLE4=Spring Summer Feeling
TTITLE5=Cross My Mind
TTITLE6=Bedda At Home
TTITLE7=Talk To Me
TTITLE8=Family Reunion
TTITLE9=Can' t Explain (42nd Street Happenstance)
TTITLE10=Whatever
TTITLE11=Not Like Crazy
TTITLE12=Nothing (Interlude)
TTITLE13=Rasool
TTITLE14=My Petition
TTITLE15=I Keep/Still Here
TTITLE16=Bedda At Home (Acoustic Version) [Bonus Track]
EXTD=
EXTT0=
EXTT1=
EXTT2=
EXTT3=
EXTT4=
EXTT5=
EXTT6=
EXTT7=
EXTT8=
EXTT9=
EXTT10=
EXTT11=
EXTT12=
EXTT13=
EXTT14=
EXTT15=
EXTT16=
PLAYORDER=
